<svg height="512pt" viewBox="0 -32 512 512" width="512pt" xmlns="http://www.w3.org/2000/svg"><path d="m504.5 17.5v413.050781c0 5.519531-4.480469 10-10 10h-477c-5.519531 0-10-4.480469-10-10v-413.050781c0-5.519531 4.480469-10 10-10h477c5.519531 0 10 4.480469 10 10zm0 0" fill="#e3f4ff"/><path d="m504.5 17.5v413.050781c0 5.519531-4.480469 10-10 10h-29.671875c5.523437 0 10-4.480469 10-10v-413.050781c0-5.519531-4.476563-10-10-10h29.671875c5.519531 0 10 4.480469 10 10zm0 0" fill="#bddff4"/><path d="m504.5 17.5v53.570312h-497v-53.570312c0-5.519531 4.480469-10 10-10h477c5.519531 0 10 4.480469 10 10zm0 0" fill="#618baa"/><path d="m504.5 17.5v53.570312h-29.671875v-53.570312c0-5.519531-4.476563-10-10-10h29.671875c5.519531 0 10 4.480469 10 10zm0 0" fill="#4e7693"/><path d="m153.390625 7.5v63.570312h-145.890625v-53.570312c0-5.519531 4.480469-10 10-10zm0 0" fill="#27e6fc"/><path d="m445.210938 331.261719h-67.394532c-5.523437 0-10-4.476563-10-10v-67.390625c0-5.523438 4.476563-10 10-10h67.394532c5.519531 0 10 4.476562 10 10v67.390625c0 5.523437-4.480469 10-10 10zm0 0" fill="#bddff4"/><path d="m455.210938 270.019531h-87.394532v-16.148437c0-5.523438 4.476563-10 10-10h67.394532c5.519531 0 10 4.476562 10 10zm0 0" fill="#fd9e28"/><path d="m186.191406 193.011719h-59.96875c-4.914062 0-8.898437-3.984375-8.898437-8.898438v-59.964843c0-4.914063 3.984375-8.898438 8.898437-8.898438h59.96875c4.914063 0 8.898438 3.984375 8.898438 8.898438v59.964843c0 4.914063-3.984375 8.898438-8.898438 8.898438zm0 0" fill="#bddff4"/><path d="m195.089844 138.519531h-77.765625v-14.371093c0-4.914063 3.984375-8.898438 8.898437-8.898438h59.96875c4.914063 0 8.898438 3.984375 8.898438 8.898438zm0 0" fill="#27e6fc"/><path d="m99.320312 433.046875h-81.820312c-1.378906 0-2.5-1.121094-2.5-2.5v-351.980469h178.308594c4.140625 0 7.5-3.355468 7.5-7.5 0-4.140625-3.359375-7.5-7.5-7.5h-32.417969v-48.566406h215.917969c4.140625 0 7.5-3.359375 7.5-7.5s-3.359375-7.5-7.5-7.5h-359.308594c-9.648438 0-17.5 7.851562-17.5 17.5v413.046875c0 9.648437 7.851562 17.5 17.5 17.5h81.820312c4.140626 0 7.5-3.359375 7.5-7.5s-3.359374-7.5-7.5-7.5zm-81.820312-418.046875h128.390625v48.570312h-130.890625v-46.070312c0-1.378906 1.121094-2.5 2.5-2.5zm0 0"/><path d="m494.5 0h-85.03125c-4.144531 0-7.5 3.359375-7.5 7.5s3.355469 7.5 7.5 7.5h85.03125c1.378906 0 2.5 1.121094 2.5 2.5v46.070312h-267.183594c-4.140625 0-7.5 3.355469-7.5 7.5 0 4.140626 3.359375 7.5 7.5 7.5h267.183594v351.976563c0 1.378906-1.121094 2.5-2.5 2.5h-362.519531c-4.140625 0-7.5 3.359375-7.5 7.5s3.359375 7.5 7.5 7.5h362.519531c9.648438 0 17.5-7.851563 17.5-17.5v-413.046875c0-9.648438-7.851562-17.5-17.5-17.5zm0 0"/><path d="m53.832031 46.707031h.105469.039062c4.125 0 7.476563-3.335937 7.496094-7.464843.019532-4.144532-3.320312-7.515626-7.464844-7.535157h-.105468c-.011719 0-.023438 0-.035156 0-4.125 0-7.480469 3.332031-7.5 7.464844-.019532 4.140625 3.324218 7.515625 7.464843 7.535156zm0 0"/><path d="m81.382812 46.785156h.101563c4.144531 0 7.5-3.355468 7.5-7.5 0-4.140625-3.355469-7.5-7.5-7.5h-.101563c-4.144531 0-7.5 3.359375-7.5 7.5 0 4.144532 3.355469 7.5 7.5 7.5zm0 0"/><path d="m108.859375 46.867188h.105469.035156c4.125 0 7.480469-3.335938 7.5-7.464844.019531-4.144532-3.324219-7.515625-7.464844-7.535156h-.105468c-.011719 0-.023438 0-.035157 0-4.125 0-7.480469 3.332031-7.5 7.464843-.019531 4.140625 3.324219 7.515625 7.464844 7.535157zm0 0"/><path d="m349.515625 387.199219-8.152344 8.152343c-2.929687 2.925782-2.929687 7.675782 0 10.605469 1.464844 1.464844 3.382813 2.195313 5.304688 2.195313 1.917969 0 3.839843-.730469 5.300781-2.195313l8.152344-8.152343c2.929687-2.929688 2.929687-7.675782 0-10.605469-2.929688-2.929688-7.679688-2.929688-10.605469 0zm0 0"/><path d="m462.710938 370.746094c0-4.140625-3.359376-7.5-7.5-7.5h-365.765626v-246.253906c0-4.140626-3.359374-7.5-7.5-7.5-4.140624 0-7.5 3.359374-7.5 7.5v45.105468h-17.609374c-4.140626 0-7.5 3.355469-7.5 7.5 0 4.140625 3.359374 7.5 7.5 7.5h17.609374v39.085938h-17.609374c-4.140626 0-7.5 3.359375-7.5 7.5s3.359374 7.5 7.5 7.5h17.609374v39.089844h-17.609374c-4.140626 0-7.5 3.355468-7.5 7.5 0 4.140624 3.359374 7.5 7.5 7.5h17.609374v39.085937h-17.609374c-4.140626 0-7.5 3.359375-7.5 7.5 0 4.144531 3.359374 7.5 7.5 7.5h17.609374v31.386719c0 4.144531 3.355469 7.5 7.5 7.5h373.261719c4.144531 0 7.503907-3.355469 7.503907-7.5zm0 0"/><path d="m420.25 188.417969h-85.164062c-3.636719 0-6.75 2.613281-7.386719 6.195312l-15.234375 86.34375-43.753906-52.085937c-1.429688-1.703125-3.550782-2.695313-5.769532-2.675782-2.222656.007813-4.328125 1-5.75 2.714844l-16.363281 19.75-23.152344-34.398437c-1.476562-2.199219-4-3.453125-6.652343-3.300781-2.640626.152343-5.011719 1.6875-6.226563 4.039062l-46.3125 89.433594-28.332031-11.574219c-3.351563-1.371094-7.207032-.144531-9.15625 2.910156l-18.089844 28.332031c-2.230469 3.492188-1.207031 8.128907 2.285156 10.355469 1.25.800781 2.648438 1.179688 4.027344 1.179688 2.476562 0 4.898438-1.222657 6.332031-3.464844l14.722657-23.058594 28.882812 11.800781c3.597656 1.464844 7.714844-.050781 9.5-3.496093l43.644531-84.285157 21.683594 32.222657c1.320313 1.960937 3.488281 3.1875 5.851563 3.304687 2.371093.117188 4.636718-.886718 6.144531-2.707031l17.027343-20.550781 48.308594 57.507812c1.875 2.230469 4.871094 3.171875 7.683594 2.417969 2.816406-.753906 4.9375-3.070313 5.445312-5.9375l16.9375-95.972656h78.871094c4.140625 0 7.5-3.359375 7.5-7.5 0-4.144531-3.359375-7.5-7.503906-7.5zm0 0"/><path d="m104.378906 387.199219-8.148437 8.152343c-2.929688 2.925782-2.929688 7.675782 0 10.605469 1.464843 1.464844 3.382812 2.195313 5.300781 2.195313 1.921875 0 3.839844-.730469 5.304688-2.195313l8.148437-8.152343c2.929687-2.929688 2.929687-7.675782 0-10.605469-2.925781-2.929688-7.675781-2.929688-10.605469 0zm0 0"/><path d="m139.398438 387.199219-8.148438 8.152343c-2.929688 2.925782-2.929688 7.675782 0 10.605469 1.464844 1.464844 3.382812 2.195313 5.300781 2.195313 1.921875 0 3.839844-.730469 5.304688-2.195313l8.148437-8.152343c2.929688-2.929688 2.929688-7.675782 0-10.605469-2.925781-2.929688-7.675781-2.929688-10.605468 0zm0 0"/><path d="m174.417969 387.199219-8.148438 8.152343c-2.929687 2.925782-2.929687 7.675782 0 10.605469 1.460938 1.464844 3.382813 2.195313 5.300781 2.195313 1.917969 0 3.839844-.730469 5.304688-2.195313l8.148438-8.152343c2.929687-2.929688 2.929687-7.675782 0-10.605469-2.925782-2.929688-7.675782-2.929688-10.605469 0zm0 0"/><path d="m209.4375 387.199219-8.152344 8.152343c-2.925781 2.925782-2.925781 7.675782 0 10.605469 1.464844 1.464844 3.386719 2.195313 5.304688 2.195313 1.917968 0 3.839844-.730469 5.304687-2.195313l8.148438-8.152343c2.929687-2.929688 2.929687-7.675782 0-10.605469-2.929688-2.929688-7.675781-2.929688-10.605469 0zm0 0"/><path d="m244.457031 387.199219-8.152343 8.152343c-2.925782 2.925782-2.925782 7.675782 0 10.605469 1.464843 1.464844 3.386718 2.195313 5.304687 2.195313s3.839844-.730469 5.300781-2.195313l8.152344-8.152343c2.929688-2.929688 2.929688-7.675782 0-10.605469-2.929688-2.929688-7.675781-2.929688-10.605469 0zm0 0"/><path d="m279.476562 387.199219-8.152343 8.152343c-2.925781 2.925782-2.925781 7.675782 0 10.605469 1.464843 1.464844 3.386719 2.195313 5.304687 2.195313 1.917969 0 3.839844-.730469 5.304688-2.195313l8.148437-8.152343c2.929688-2.929688 2.929688-7.675782 0-10.605469-2.929687-2.929688-7.679687-2.929688-10.605469 0zm0 0"/><path d="m314.496094 387.199219-8.152344 8.152343c-2.929688 2.925782-2.929688 7.675782 0 10.605469 1.464844 1.464844 3.386719 2.195313 5.304688 2.195313 1.917968 0 3.839843-.730469 5.300781-2.195313l8.152343-8.152343c2.929688-2.929688 2.929688-7.675782 0-10.605469-2.929687-2.929688-7.679687-2.929688-10.605468 0zm0 0"/><path d="m419.117188 387.199219-8.148438 8.152343c-2.929688 2.925782-2.929688 7.675782 0 10.605469 1.464844 1.464844 3.382812 2.195313 5.300781 2.195313 1.921875 0 3.839844-.730469 5.304688-2.195313l8.148437-8.152343c2.929688-2.929688 2.929688-7.675782 0-10.605469-2.925781-2.929688-7.675781-2.929688-10.605468 0zm0 0"/><path d="m384.097656 387.199219-8.148437 8.152343c-2.929688 2.925782-2.929688 7.675782 0 10.605469 1.464843 1.464844 3.382812 2.195313 5.304687 2.195313 1.917969 0 3.835938-.730469 5.300782-2.195313l8.148437-8.152343c2.929687-2.929688 2.929687-7.675782 0-10.605469-2.925781-2.929688-7.675781-2.929688-10.605469 0zm0 0"/><path d="m56.882812 158.496094c4.140626 0 7.5-3.355469 7.5-7.5 0-4.140625-3.359374-7.5-7.5-7.5h-.09375c-4.140624 0-7.453124 3.359375-7.453124 7.5 0 4.144531 3.402343 7.5 7.546874 7.5zm0 0"/><path d="m56.882812 212.585938c4.125 0 7.476563-3.332032 7.5-7.457032.019532-4.144531-3.316406-7.519531-7.460937-7.542968h-.089844c-.015625 0-.027343 0-.042969 0-4.121093 0-7.429687 3.332031-7.453124 7.460937-.023438 4.140625 3.363281 7.515625 7.503906 7.539063zm0 0"/><path d="m56.882812 266.671875c4.140626 0 7.5-3.355469 7.5-7.5 0-4.140625-3.359374-7.5-7.5-7.5h-.09375c-4.140624 0-7.453124 3.359375-7.453124 7.5 0 4.144531 3.402343 7.5 7.546874 7.5zm0 0"/><path d="m56.882812 320.761719c4.125 0 7.476563-3.332031 7.5-7.457031.019532-4.144532-3.316406-7.519532-7.460937-7.542969h-.089844c-4.128906.003906-7.472656 3.316406-7.496093 7.460937-.019532 4.140625 3.363281 7.515625 7.507812 7.539063zm0 0"/><path d="m462.710938 253.871094c0-9.648438-7.851563-17.5-17.5-17.5h-67.394532c-9.648437 0-17.5 7.851562-17.5 17.5v67.390625c0 9.648437 7.851563 17.5 17.5 17.5h67.394532c9.648437 0 17.5-7.851563 17.5-17.5zm-84.894532-2.5h67.394532c1.375 0 2.5 1.121094 2.5 2.5v8.648437h-72.394532v-8.648437c0-1.378906 1.121094-2.5 2.5-2.5zm67.394532 72.390625h-67.394532c-1.378906 0-2.5-1.121094-2.5-2.5v-43.742188h72.394532v43.742188c0 1.378906-1.125 2.5-2.5 2.5zm0 0"/><path d="m186.191406 200.511719c9.039063 0 16.398438-7.355469 16.398438-16.398438v-59.964843c0-9.042969-7.359375-16.398438-16.398438-16.398438h-59.96875c-9.039062 0-16.398437 7.355469-16.398437 16.398438v59.964843c0 9.042969 7.359375 16.398438 16.398437 16.398438zm-59.96875-77.761719h59.96875c.769532 0 1.398438.628906 1.398438 1.398438v6.871093h-62.765625v-6.871093c0-.769532.628906-1.398438 1.398437-1.398438zm-1.398437 61.363281v-38.09375h62.765625v38.09375c0 .773438-.628906 1.398438-1.398438 1.398438h-59.96875c-.769531 0-1.398437-.625-1.398437-1.398438zm0 0"/><path d="m245.683594 120.792969h-17.867188c-4.140625 0-7.5 3.359375-7.5 7.5s3.359375 7.5 7.5 7.5h17.867188c4.144531 0 7.5-3.359375 7.5-7.5s-3.355469-7.5-7.5-7.5zm0 0"/><path d="m280.703125 145.496094h-52.886719c-4.140625 0-7.5 3.359375-7.5 7.5 0 4.144531 3.359375 7.5 7.5 7.5h52.886719c4.144531 0 7.5-3.355469 7.5-7.5 0-4.140625-3.355469-7.5-7.5-7.5zm0 0"/><path d="m280.703125 179.097656c4.144531 0 7.5-3.359375 7.5-7.5 0-4.144531-3.355469-7.5-7.5-7.5h-52.886719c-4.140625 0-7.5 3.355469-7.5 7.5 0 4.140625 3.359375 7.5 7.5 7.5zm0 0"/></svg>