<svg height="512pt" viewBox="0 -47 512 512" width="512pt" xmlns="http://www.w3.org/2000/svg"><path d="m20.738281 118.753906h160.414063v181.152344h-160.414063c-11.453125 0-20.738281-9.28125-20.738281-20.734375v-139.679687c0-11.453126 9.285156-20.738282 20.738281-20.738282zm0 0" fill="#8ebac5"/><path d="m76.429688 118.753906v106.644532c0 17.472656-14.164063 31.636718-31.640626 31.636718h-44.789062v22.136719c0 11.453125 9.285156 20.734375 20.738281 20.734375h160.414063v-181.152344zm0 0" fill="#678d98"/><path d="m232.78125 23.539062-125.261719 95.214844v180.1875l125.261719 95.214844c20.089844 15.273438 44.632812 23.542969 69.867188 23.542969 9.113281 0 16.496093-7.386719 16.496093-16.496094v-384.707031c0-9.109375-7.382812-16.496094-16.496093-16.496094-25.234376 0-49.777344 8.269531-69.867188 23.539062zm0 0" fill="#bbb0ba"/><path d="m302.652344 0c-14.425782 0-28.621094 2.714844-41.894532 7.878906v316c0 9.109375-7.382812 16.492188-16.492187 16.492188-25.238281 0-49.78125-8.265625-69.871094-23.539063l-66.875-50.832031v32.941406l125.261719 95.214844c20.089844 15.273438 44.632812 23.542969 69.867188 23.542969 9.113281 0 16.496093-7.386719 16.496093-16.496094v-384.707031c0-9.109375-7.382812-16.496094-16.492187-16.496094zm0 0" fill="#ab9faa"/><g fill="#fbc700"><path d="m403.410156 360.832031c-6.605468 0-12.851562-3.972656-15.429687-10.488281-3.375-8.519531.796875-18.15625 9.320312-21.53125 49.519531-19.605469 81.519531-66.695312 81.519531-119.964844 0-53.269531-32-100.359375-81.523437-119.960937-8.519531-3.375-12.691406-13.015625-9.320313-21.53125 3.375-8.519531 13.015626-12.691407 21.53125-9.320313 29.886719 11.832032 55.386719 32.101563 73.746094 58.621094 18.808594 27.164062 28.746094 59.042969 28.746094 92.191406 0 33.148438-9.9375 65.03125-28.742188 92.191406-18.359374 26.523438-43.859374 46.792969-73.746093 58.625-2.003907.792969-4.070313 1.167969-6.101563 1.167969zm0 0"/><path d="m360.390625 307.734375c-8.230469 0-15.371094-6.121094-16.4375-14.5-1.152344-9.089844 5.277344-17.394531 14.367187-18.550781 33.023438-4.195313 57.925782-32.5 57.925782-65.835938 0-33.332031-24.902344-61.636718-57.925782-65.835937-9.089843-1.152344-15.519531-9.457031-14.367187-18.546875 1.15625-9.089844 9.457031-15.527344 18.550781-14.367188 49.554688 6.300782 86.921875 48.753906 86.921875 98.75 0 50-37.367187 92.453125-86.921875 98.75-.710937.09375-1.417968.136719-2.113281.136719zm0 0"/></g></svg>