<?xml version="1.0" encoding="iso-8859-1"?>
<!-- Generator: Adobe Illustrator 19.0.0, SVG Export Plug-In . SVG Version: 6.00 Build 0)  -->
<svg version="1.1" id="Capa_1" xmlns="http://www.w3.org/2000/svg" xmlns:xlink="http://www.w3.org/1999/xlink" x="0px" y="0px"
	 viewBox="0 0 512 512" style="enable-background:new 0 0 512 512;" xml:space="preserve">
<path style="fill:#6D737F;" d="M467,512H45c-24.8,0-45-20.2-45-45V45C0,20.2,20.2,0,45,0h422c24.8,0,45,20.2,45,45v422
	C512,491.8,491.8,512,467,512z"/>
<path style="fill:#5E5F69;" d="M467,0H256v512h211c24.8,0,45-20.2,45-45V45C512,20.2,491.8,0,467,0z"/>
<g>
	<path style="fill:#FFF9FC;" d="M106,173c-8.3,0-15-6.7-15-15V84c0-8.3,6.7-15,15-15s15,6.7,15,15v74C121,166.3,114.3,173,106,173z"
		/>
	<path style="fill:#FFF9FC;" d="M206,173c-19.3,0-35-15.7-35-35v-34c0-19.3,15.7-35,35-35s35,15.7,35,35v34
		C241,157.3,225.3,173,206,173z M206,99c-2.8,0-5,2.2-5,5v34c0,2.8,2.2,5,5,5s5-2.2,5-5v-34C211,101.2,208.8,99,206,99z"/>
	<path style="fill:#FFF9FC;" d="M206,308c-8.3,0-15-6.7-15-15v-74c0-8.3,6.7-15,15-15s15,6.7,15,15v74C221,301.3,214.3,308,206,308z
		"/>
	<path style="fill:#FFF9FC;" d="M106,308c-19.3,0-35-15.7-35-35v-34c0-19.3,15.7-35,35-35s35,15.7,35,35v34
		C141,292.3,125.3,308,106,308z M106,234c-2.8,0-5,2.2-5,5v34c0,2.8,2.2,5,5,5s5-2.2,5-5v-34C111,236.2,108.8,234,106,234z"/>
	<path style="fill:#FFF9FC;" d="M106,443c-8.3,0-15-6.7-15-15v-74c0-8.3,6.7-15,15-15s15,6.7,15,15v74C121,436.3,114.3,443,106,443z
		"/>
	<path style="fill:#FFF9FC;" d="M206,443c-19.3,0-35-15.7-35-35v-34c0-19.3,15.7-35,35-35s35,15.7,35,35v34
		C241,427.3,225.3,443,206,443z M206,369c-2.8,0-5,2.2-5,5v34c0,2.8,2.2,5,5,5s5-2.2,5-5v-34C211,371.2,208.8,369,206,369z"/>
</g>
<g>
	<path style="fill:#DFDAE0;" d="M306,173c-8.3,0-15-6.7-15-15V84c0-8.3,6.7-15,15-15s15,6.7,15,15v74C321,166.3,314.3,173,306,173z"
		/>
	<path style="fill:#DFDAE0;" d="M406,173c-19.3,0-35-15.7-35-35v-34c0-19.3,15.7-35,35-35s35,15.7,35,35v34
		C441,157.3,425.3,173,406,173z M406,99c-2.8,0-5,2.2-5,5v34c0,2.8,2.2,5,5,5s5-2.2,5-5v-34C411,101.2,408.8,99,406,99z"/>
	<path style="fill:#DFDAE0;" d="M306,308c-8.3,0-15-6.7-15-15v-74c0-8.3,6.7-15,15-15s15,6.7,15,15v74C321,301.3,314.3,308,306,308z
		"/>
	<path style="fill:#DFDAE0;" d="M406,308c-19.3,0-35-15.7-35-35v-34c0-19.3,15.7-35,35-35s35,15.7,35,35v34
		C441,292.3,425.3,308,406,308z M406,234c-2.8,0-5,2.2-5,5v34c0,2.8,2.2,5,5,5s5-2.2,5-5v-34C411,236.2,408.8,234,406,234z"/>
	<path style="fill:#DFDAE0;" d="M406,443c-8.3,0-15-6.7-15-15v-74c0-8.3,6.7-15,15-15s15,6.7,15,15v74C421,436.3,414.3,443,406,443z
		"/>
	<path style="fill:#DFDAE0;" d="M306,443c-19.3,0-35-15.7-35-35v-34c0-19.3,15.7-35,35-35s35,15.7,35,35v34
		C341,427.3,325.3,443,306,443z M306,369c-2.8,0-5,2.2-5,5v34c0,2.8,2.2,5,5,5s5-2.2,5-5v-34C311,371.2,308.8,369,306,369z"/>
</g>
<g>
</g>
<g>
</g>
<g>
</g>
<g>
</g>
<g>
</g>
<g>
</g>
<g>
</g>
<g>
</g>
<g>
</g>
<g>
</g>
<g>
</g>
<g>
</g>
<g>
</g>
<g>
</g>
<g>
</g>
</svg>
