<svg id="Capa_1" enable-background="new 0 0 512 512" height="100%" viewBox="0 0 512 512" width="100%" xmlns="http://www.w3.org/2000/svg"><g><g><g><path d="m292.923 271.124h30.205v174.677h-30.205z" fill="#e2d9fb"/></g></g><g><g><path d="m157.082 403.446h-69.469v-30.205h39.264v-102.301h30.205z" fill="#f2f2fc"/></g></g><g><g><path d="m423.882 403.446h-69.468v-132.003h30.205v101.798h39.263z" fill="#e2d9fb"/></g></g><g><g><path d="m187.211 271.124h30.205v174.677h-30.205z" fill="#f2f2fc"/></g></g><g><g><path d="m383.76 286.226h-234.901c-55.561 0-100.762-45.202-100.762-100.762 0-53.407 41.761-97.243 94.346-100.56 2.914-47.31 42.328-84.904 90.359-84.904 23.789 0 46.277 9.35 63.318 26.328 13.475 13.425 22.171 30.251 25.236 48.444 30.136 3.046 54.672 25.335 61.095 54.356h.511c43.432 0 79.025 34.971 79.343 77.956.156 21.097-7.941 40.96-22.798 55.928-14.858 14.97-34.656 23.214-55.747 23.214z" fill="#00d7df"/></g></g><path d="m382.963 129.128h-.511c-6.423-29.021-30.959-51.31-61.095-54.356-3.065-18.194-11.76-35.02-25.236-48.444-11.424-11.382-25.302-19.315-40.373-23.322v283.22h128.012c21.091 0 40.89-8.244 55.749-23.214 14.858-14.968 22.955-34.831 22.798-55.928-.319-42.985-35.911-77.956-79.344-77.956z" fill="#00b2cc"/><circle cx="60.8" cy="388.174" fill="#44569b" r="40.844"/><circle cx="451.2" cy="388.174" fill="#203f7c" r="40.844"/><circle cx="202.2" cy="471.156" fill="#44569b" r="40.844"/><circle cx="308.7" cy="471.156" fill="#203f7c" r="40.844"/></g></svg>