<?xml version="1.0" encoding="iso-8859-1"?>
<!-- Generator: Adobe Illustrator 19.0.0, SVG Export Plug-In . SVG Version: 6.00 Build 0)  -->
<svg xmlns="http://www.w3.org/2000/svg" xmlns:xlink="http://www.w3.org/1999/xlink" version="1.1" id="Layer_1" x="0px" y="0px" viewBox="0 0 490 490" style="enable-background:new 0 0 490 490;" xml:space="preserve" width="512" height="512">
<g>
	<circle style="fill:#304F75;" cx="245" cy="245" r="245"/>
	<g>
		<path style="fill:#3B9CB7;" d="M463.75,271.25c0,81.634-44.72,152.824-111.003,190.398v0.014C320.945,479.692,284.168,490,245,490    c-28.572,0-55.866-5.483-80.878-15.447h-0.028C83.326,442.394,26.25,363.494,26.25,271.25c0-61.308,25.219-116.734,65.857-156.438    C131.537,76.262,185.492,52.501,245,52.501c24.985,0,48.994,4.192,71.354,11.901C402.125,93.991,463.75,175.419,463.75,271.25z"/>
		<path style="fill:#2589A0;" d="M291.163,485.107C276.279,488.309,260.832,490,245,490c-28.572,0-55.866-5.483-80.878-15.447    h-0.028C83.326,442.394,26.25,363.494,26.25,271.25c0-61.308,25.219-116.734,65.857-156.438    C131.537,76.262,185.492,52.501,245,52.501c15.832,0,31.266,1.677,46.136,4.892c-41.023,8.809-77.772,29.136-106.702,57.419    c-40.638,39.704-65.857,95.13-65.857,156.438c0,92.244,57.075,171.143,137.844,203.302h0.028    C267.594,478.992,279.193,482.551,291.163,485.107z"/>
		<path style="fill:#55D485;" d="M463.75,271.25c0,81.634-44.72,152.824-111.003,190.398    c-38.124-77.649-126.794-8.919-137.102-105.795c-10.294-96.889,106.166-62.875,140.18-96.889s0-86.582-28.861-57.721    s-72.152,20.615-61.844-8.246c10.307-28.861,59.783-41.229,24.188-53.598c-35.608-12.355,0-47.964,27.019-74.983l0.027-0.014    c56.883,19.625,103.142,62.05,127.839,116.349c-26.524,0-51.262,45.229-26.524,69.966c13.427,13.427,30.111,17.096,46.067,18.292    C463.75,269.752,463.75,270.508,463.75,271.25z"/>
		<path style="fill:#55D485;" d="M164.122,474.552h-0.028C83.326,442.394,26.25,363.494,26.25,271.25    c0-61.308,25.219-116.734,65.857-156.438c59.645,14.293,69.953,55.509,30.785,69.939c-38.605,14.224-41.161,40.46-1.773,53.049    c0.591,0.192,1.168,0.371,1.773,0.55c27.857,8.356,17.124,34.605-3.587,50.753c-9.923,7.737-22.154,13.152-33.519,13.152    c-35.045,0-6.184,71.121,36.076,71.121S164.122,474.552,164.122,474.552z"/>
		<path style="fill:#10995B;" d="M164.122,474.552h-0.028C83.326,442.394,26.25,363.494,26.25,271.25    c0-61.308,25.219-116.734,65.857-156.438c59.645,14.293,69.953,55.509,30.785,69.939c-38.605,14.224-41.161,40.46-1.773,53.049    c-1.677,10.912-2.542,22.071-2.542,33.451c0,6.006,0.247,11.956,0.728,17.852c-9.923,7.737-22.154,13.152-33.519,13.152    c-35.045,0-6.184,71.121,36.076,71.121S164.122,474.552,164.122,474.552z"/>
	</g>
	<g>
		<path style="fill:#F75454;" d="M394.524,286.002l82.562-143.001C513.779,79.445,467.912,0,394.524,0h0    c-73.388,0-119.255,79.445-82.561,143.001L394.524,286.002z"/>
		<path style="fill:#BCE6F5;" d="M444.189,95.33c0,23.39-16.17,43-37.94,48.27c-3.76,0.92-7.69,1.4-11.73,1.4    c-27.42,0-49.66-22.24-49.66-49.67c0-27.42,22.24-49.66,49.66-49.66c4.04,0,7.97,0.48,11.73,1.4    C428.019,52.34,444.189,71.95,444.189,95.33z"/>
		<path style="fill:#FFFFFF;" d="M444.189,95.33c0,23.39-16.17,43-37.94,48.27c-21.77-5.27-37.93-24.88-37.93-48.27    c0-23.38,16.16-42.99,37.93-48.26C428.019,52.34,444.189,71.95,444.189,95.33z"/>
	</g>
</g>
</svg>
