<svg height="512" viewBox="0 0 64 64" width="512" xmlns="http://www.w3.org/2000/svg"><g id="Flat"><g id="Color_copy" data-name="Color copy"><g><path d="m8 60v-47a4 4 0 0 1 4-4h10a6 6 0 0 1 3.6 1.2l4.8 3.6a6 6 0 0 0 3.6 1.2h23a4 4 0 0 1 4 4v37a4 4 0 0 1 -4 4z" fill="#fcbc04"/><path d="m14 11v-2h-2a4 4 0 0 0 -4 4v47h49a4 4 0 0 0 4-4v-37h-39a8 8 0 0 1 -8-8z" fill="#e59730"/><rect fill="#f9e109" height="38" rx="4" width="58" x="3" y="23"/><path d="m33 50a18 18 0 0 1 -18-18v-9h-8a4 4 0 0 0 -4 4v30a4 4 0 0 0 4 4h50a4 4 0 0 0 4-4v-7z" fill="#fcbc04"/><path d="m13 19h40v4h-40z" fill="#aae1f9"/><rect fill="#c4f236" height="20" rx="2" width="34" x="15" y="33"/><path d="m33 50a17.993 17.993 0 0 1 -17.847-15.765 1.986 1.986 0 0 0 -.153.765v16a2 2 0 0 0 2 2h30a2 2 0 0 0 2-2v-1z" fill="#a1d51c"/><path d="m18 21a2.99 2.99 0 0 1 -2.816-2h-2.184v4h40v-2z" fill="#57b7eb"/><g fill="#aae1f9"><path d="m43 39h-18a1 1 0 0 1 0-2h18a1 1 0 0 1 0 2z"/><path d="m43 44h-22a1 1 0 0 1 0-2h22a1 1 0 0 1 0 2z"/><path d="m38 49h-17a1 1 0 0 1 0-2h17a1 1 0 0 1 0 2z"/></g><path d="m21 49h6.128a17.875 17.875 0 0 1 -4.043-2h-2.085a1 1 0 0 0 0 2z" fill="#57b7eb"/></g></g></g></svg>