<svg height="511pt" viewBox="-49 1 511 511.999" width="511pt" xmlns="http://www.w3.org/2000/svg"><path d="m348.976562 489.082031c-25.902343 0-46.972656-21.074219-46.972656-46.972656v-374.789063c0-28.726562-23.371094-52.097656-52.097656-52.097656s-52.097656 23.371094-52.097656 52.097656v32.328126c0 4.203124-3.40625 7.613281-7.613282 7.613281-4.203124 0-7.609374-3.410157-7.609374-7.613281v-32.328126c-.003907-37.121093 30.199218-67.320312 67.320312-67.320312s67.320312 30.199219 67.320312 67.320312v374.785157c0 17.507812 14.242188 31.75 31.75 31.75 17.507813 0 31.75-14.242188 31.75-31.75v-141.707031c0-4.203126 3.40625-7.609376 7.609376-7.609376 4.203124 0 7.613281 3.40625 7.613281 7.609376v141.707031c0 25.902343-21.070313 46.976562-46.972657 46.976562zm0 0" fill="#7a6e79"/><path d="m203.625 108.976562v-10.191406c0-5.464844-4.425781-9.890625-9.890625-9.890625h-6.582031c-5.464844 0-9.894532 4.425781-9.894532 9.890625v10.191406c-8.941406 4.738282-15.039062 14.132813-15.039062 24.957032v34.09375h56.449219v-34.09375c0-10.824219-6.097657-20.21875-15.042969-24.957032zm0 0" fill="#a79da8"/><path d="m190.441406 172.910156c-4.203125 0-7.609375-3.40625-7.609375-7.609375v-20.441406c0-4.207031 3.40625-7.613281 7.609375-7.613281 4.207032 0 7.613282 3.40625 7.613282 7.613281v20.441406c0 4.203125-3.40625 7.609375-7.613282 7.609375zm0 0" fill="#928392"/><path d="m257.695312 511.996094h-247.71875c-5.234374 0-9.476562-4.242188-9.476562-9.476563v-327.972656c0-5.234375 4.242188-9.476563 9.476562-9.476563h247.71875c5.230469 0 9.472657 4.242188 9.472657 9.476563v327.972656c0 5.234375-4.242188 9.476563-9.472657 9.476563zm0 0" fill="#a79da8"/><path d="m209.078125 301.78125h-93.71875c-5.460937 0-9.890625-4.425781-9.890625-9.890625v-126.820313h113.5v126.820313c0 5.464844-4.429688 9.890625-9.890625 9.890625zm0 0" fill="#7a6e79"/><path d="m267.167969 174.546875v327.976563c0 5.222656-4.246094 9.476562-9.476563 9.476562h-24.660156c5.222656 0 9.472656-4.253906 9.472656-9.476562v-327.976563c0-5.234375-4.25-9.476563-9.472656-9.476563h24.660156c5.234375 0 9.476563 4.242188 9.476563 9.476563zm0 0" fill="#928392"/><g fill="#caf1fd"><path d="m134.886719 209.609375c-4.203125 0-7.609375-3.410156-7.609375-7.613281v-11.199219c0-4.203125 3.40625-7.609375 7.609375-7.609375s7.613281 3.40625 7.613281 7.609375v11.199219c0 4.203125-3.40625 7.613281-7.613281 7.613281zm0 0"/><path d="m134.886719 275.941406c-4.203125 0-7.609375-3.40625-7.609375-7.609375v-40.878906c0-4.203125 3.40625-7.609375 7.609375-7.609375s7.613281 3.410156 7.613281 7.609375v40.878906c0 4.203125-3.40625 7.609375-7.613281 7.609375zm0 0"/><path d="m183.417969 227.453125h-11.988281c-3.792969 0-6.863282-3.070313-6.863282-6.863281v-22.929688c0-3.792968 3.070313-6.863281 6.863282-6.863281h11.988281c3.792969 0 6.867187 3.070313 6.867187 6.863281v22.929688c-.003906 3.792968-3.074218 6.863281-6.867187 6.863281zm0 0"/><path d="m408.003906 231.316406v26.753906h-39.328125v-26.753906c0-2.757812 2.234375-4.992187 4.984375-4.992187h29.359375c2.75 0 4.984375 2.234375 4.984375 4.992187zm0 0"/></g><path d="m368.675781 239.539062h39.328125v18.53125h-39.328125zm0 0" fill="#9de7fc"/><path d="m367.398438 252.726562h41.878906c2.753906 0 4.984375 2.234376 4.984375 4.988282v30.066406c0 14.316406-11.605469 25.921875-25.925781 25.921875-14.316407 0-25.921876-11.605469-25.921876-25.921875v-30.066406c0-2.753906 2.230469-4.988282 4.984376-4.988282zm0 0" fill="#b6aeb7"/><path d="m414.265625 257.714844v30.058594c0 14.320312-11.609375 25.929687-25.929687 25.929687-2.910157 0-5.703126-.476563-8.308594-1.367187 10.238281-3.453126 17.617187-13.144532 17.617187-24.5625v-30.058594c0-2.75-2.234375-4.984375-4.984375-4.984375h16.613282c2.761718 0 4.992187 2.234375 4.992187 4.984375zm0 0" fill="#a79da8"/></svg>