<?xml version="1.0" encoding="iso-8859-1"?>
<!-- Generator: Adobe Illustrator 19.0.0, SVG Export Plug-In . SVG Version: 6.00 Build 0)  -->
<svg version="1.1" id="Capa_1" xmlns="http://www.w3.org/2000/svg" xmlns:xlink="http://www.w3.org/1999/xlink" x="0px" y="0px"
	 viewBox="0 0 512 512" style="enable-background:new 0 0 512 512;" xml:space="preserve">
<rect x="241" y="415" width="30" height="82"/>
<polygon points="366,482 366,512 256,512 236.488,497 256,482 "/>
<rect x="146" y="482" style="fill:#4D4D4D;" width="110" height="30"/>
<path d="M426,180v80c0,93.74-76.26,170-170,170l-20-15l20-15c77.2,0,140-62.8,140-140v-80H426z"/>
<path style="fill:#272727;" d="M366,225v35c0,60.65-49.35,110-110,110l-30-175L366,225z"/>
<path style="fill:#4D4D4D;" d="M256,195v175c-60.65,0-110-49.35-110-110v-35L256,195z"/>
<polygon points="366,175 226,175 256,225 366,225 "/>
<rect x="146" y="175" style="fill:#272727;" width="110" height="50"/>
<path style="fill:#969696;" d="M366,110v70H226L256,0C316.65,0,366,49.35,366,110z"/>
<path style="fill:#4D4D4D;" d="M256,400v30c-93.74,0-170-76.26-170-170v-80h30v80C116,337.2,178.8,400,256,400z"/>
<path style="fill:#B9B9B9;" d="M256,0v180H146v-70C146,49.35,195.35,0,256,0z"/>
<polygon style="fill:#4D4D4D;" points="456,165 456,195 256,195 236.488,180 256,165 "/>
<rect x="56" y="165" style="fill:#737373;" width="200" height="30"/>
<g>
</g>
<g>
</g>
<g>
</g>
<g>
</g>
<g>
</g>
<g>
</g>
<g>
</g>
<g>
</g>
<g>
</g>
<g>
</g>
<g>
</g>
<g>
</g>
<g>
</g>
<g>
</g>
<g>
</g>
</svg>
